<svg id="visual" viewBox="0 0 1200 700" width="1200" height="700" xmlns="http://www.w3.org/2000/svg" xmlns:xlink="http://www.w3.org/1999/xlink" version="1.1"><rect x="0" y="0" width="1200" height="700" fill="#002233"></rect><path d="M0 505L28.5 495.7C57 486.3 114 467.7 171.2 468.3C228.3 469 285.7 489 342.8 489C400 489 457 469 514.2 464.7C571.3 460.3 628.7 471.7 685.8 471.7C743 471.7 800 460.3 857.2 452.8C914.3 445.3 971.7 441.7 1028.8 444C1086 446.3 1143 454.7 1171.5 458.8L1200 463L1200 701L1171.5 701C1143 701 1086 701 1028.8 701C971.7 701 914.3 701 857.2 701C800 701 743 701 685.8 701C628.7 701 571.3 701 514.2 701C457 701 400 701 342.8 701C285.7 701 228.3 701 171.2 701C114 701 57 701 28.5 701L0 701Z" fill="#0066FF" stroke-linecap="round" stroke-linejoin="miter"></path></svg>