<svg id="visual" viewBox="0 0 1200 700" width="1200" height="700" xmlns="http://www.w3.org/2000/svg" xmlns:xlink="http://www.w3.org/1999/xlink" version="1.1"><path d="M0 190L109 204L218 99L327 99L436 106L545 99L655 197L764 239L873 218L982 120L1091 113L1200 155L1200 0L1091 0L982 0L873 0L764 0L655 0L545 0L436 0L327 0L218 0L109 0L0 0Z" fill="#00cc8e"></path><path d="M0 435L109 428L218 498L327 302L436 379L545 435L655 344L764 547L873 407L982 484L1091 470L1200 351L1200 153L1091 111L982 118L873 216L764 237L655 195L545 97L436 104L327 97L218 97L109 202L0 188Z" fill="#00a784"></path><path d="M0 701L109 701L218 701L327 701L436 701L545 701L655 701L764 701L873 701L982 701L1091 701L1200 701L1200 349L1091 468L982 482L873 405L764 545L655 342L545 433L436 377L327 300L218 496L109 426L0 433Z" fill="#038373"></path></svg>