<svg id="visual" viewBox="0 0 1200 700" width="1200" height="700" xmlns="http://www.w3.org/2000/svg" xmlns:xlink="http://www.w3.org/1999/xlink" version="1.1"><rect x="0" y="0" width="1200" height="700" fill="#931C1C"></rect><path d="M0 507L171 497L343 505L514 484L686 517L857 488L1029 417L1200 513L1200 701L1029 701L857 701L686 701L514 701L343 701L171 701L0 701Z" fill="#f5730a"></path><path d="M0 480L171 549L343 551L514 462L686 485L857 492L1029 512L1200 523L1200 701L1029 701L857 701L686 701L514 701L343 701L171 701L0 701Z" fill="#da5b09"></path><path d="M0 514L171 526L343 558L514 516L686 539L857 553L1029 542L1200 526L1200 701L1029 701L857 701L686 701L514 701L343 701L171 701L0 701Z" fill="#be4407"></path><path d="M0 568L171 591L343 605L514 592L686 580L857 633L1029 623L1200 584L1200 701L1029 701L857 701L686 701L514 701L343 701L171 701L0 701Z" fill="#a32d04"></path><path d="M0 663L171 643L343 635L514 628L686 622L857 621L1029 632L1200 640L1200 701L1029 701L857 701L686 701L514 701L343 701L171 701L0 701Z" fill="#871400"></path></svg>