<svg id="visual" viewBox="0 0 1200 700" width="1200" height="700" xmlns="http://www.w3.org/2000/svg" xmlns:xlink="http://www.w3.org/1999/xlink" version="1.1"><path d="M0 141L109 239L218 246L327 148L436 197L545 113L655 197L764 162L873 260L982 169L1091 260L1200 155L1200 0L1091 0L982 0L873 0L764 0L655 0L545 0L436 0L327 0L218 0L109 0L0 0Z" fill="#1e125d"></path><path d="M0 204L109 302L218 323L327 197L436 288L545 162L655 295L764 232L873 323L982 239L1091 302L1200 197L1200 153L1091 258L982 167L873 258L764 160L655 195L545 111L436 195L327 146L218 244L109 237L0 139Z" fill="#001a51"></path><path d="M0 435L109 414L218 505L327 505L436 442L545 337L655 407L764 456L873 463L982 351L1091 477L1200 351L1200 195L1091 300L982 237L873 321L764 230L655 293L545 160L436 286L327 195L218 321L109 300L0 202Z" fill="#001c40"></path><path d="M0 470L109 505L218 547L327 547L436 491L545 435L655 498L764 561L873 519L982 449L1091 519L1200 393L1200 349L1091 475L982 349L873 461L764 454L655 405L545 335L436 440L327 503L218 503L109 412L0 433Z" fill="#001b2e"></path><path d="M0 547L109 617L218 645L327 638L436 589L545 561L655 617L764 631L873 624L982 547L1091 575L1200 533L1200 391L1091 517L982 447L873 517L764 559L655 496L545 433L436 489L327 545L218 545L109 503L0 468Z" fill="#00151a"></path><path d="M0 701L109 701L218 701L327 701L436 701L545 701L655 701L764 701L873 701L982 701L1091 701L1200 701L1200 531L1091 573L982 545L873 622L764 629L655 615L545 559L436 587L327 636L218 643L109 615L0 545Z" fill="#020908"></path></svg>